<svg width="114" height="114" viewBox="0 0 114 114" fill="none" xmlns="http://www.w3.org/2000/svg">
<mask id="mask0_33_9" style="mask-type:alpha" maskUnits="userSpaceOnUse" x="0" y="0" width="114" height="114">
<circle cx="57" cy="57" r="53.5" fill="#E6E6EC" stroke="url(#paint0_linear_33_9)" stroke-width="7"/>
</mask>
<g mask="url(#mask0_33_9)">
<path d="M-31 51.6088H-29.7778C-28.5556 51.6088 -26.1111 51.6088 -23.6667 55.5653C-21.2222 59.5218 -18.7778 67.4348 -16.3333 74.0196C-13.8889 80.7174 -11.4444 85.8044 -9 85.8892C-6.55556 85.8044 -4.11111 80.7174 -1.66666 77.9761C0.777781 75.3479 3.22222 75.3479 5.66667 71.3913C8.11111 67.4348 10.5556 59.5218 13 52.937C15.4444 46.2392 17.8889 41.1522 20.3333 47.6522C22.7778 54.1522 25.2222 72.8044 27.6667 75.3479C30.1111 77.8913 32.5556 64.8913 35 60.85C37.4444 56.9783 39.8889 62.0653 42.3333 67.4348C44.7778 72.8044 47.2222 77.8913 49.6667 71.3913C52.1111 64.8913 54.5556 46.2392 57 42.3675C59.4444 38.3262 61.8889 49.0653 64.3333 55.5653C66.7778 62.0653 69.2222 64.8913 71.6667 66.1066C74.1111 67.4348 76.5556 67.4348 79 64.8066C81.4444 62.0653 83.8889 56.9783 86.3333 62.15C88.7778 67.4348 91.2222 83.2609 93.6667 83.2609C96.1111 83.2609 98.5556 67.4348 101 59.5218C103.444 51.6088 105.889 51.6088 108.333 52.937C110.778 54.1522 113.222 56.9783 115.667 59.5218C118.111 62.0653 120.556 64.8913 123 71.3913C125.444 77.8913 127.889 88.6305 130.333 83.2609C132.778 77.8913 135.222 56.9783 137.667 47.6522C140.111 38.3262 142.556 41.1522 143.778 42.3675L145 43.6957V107H143.778C142.556 107 140.111 107 137.667 107C135.222 107 132.778 107 130.333 107C127.889 107 125.444 107 123 107C120.556 107 118.111 107 115.667 107C113.222 107 110.778 107 108.333 107C105.889 107 103.444 107 101 107C98.5556 107 96.1111 107 93.6667 107C91.2222 107 88.7778 107 86.3333 107C83.8889 107 81.4444 107 79 107C76.5556 107 74.1111 107 71.6667 107C69.2222 107 66.7778 107 64.3333 107C61.8889 107 59.4444 107 57 107C54.5556 107 52.1111 107 49.6667 107C47.2222 107 44.7778 107 42.3333 107C39.8889 107 37.4444 107 35 107C32.5556 107 30.1111 107 27.6667 107C25.2222 107 22.7778 107 20.3333 107C17.8889 107 15.4444 107 13 107C10.5556 107 8.11111 107 5.66667 107C3.22222 107 0.777781 107 -1.66666 107C-4.11111 107 -6.55556 107 -9 107C-11.4444 107 -13.8889 107 -16.3333 107C-18.7778 107 -21.2222 107 -23.6667 107C-26.1111 107 -28.5556 107 -29.7778 107H-31V51.6088Z" fill="url(#paint1_linear_33_9)"/>
<circle cx="57" cy="57" r="53.5" stroke="url(#paint2_linear_33_9)" stroke-width="7"/>
</g>
<defs>
<linearGradient id="paint0_linear_33_9" x1="57" y1="7" x2="57" y2="107" gradientUnits="userSpaceOnUse">
<stop offset="0.307292" stop-color="#F4972D"/>
<stop offset="0.880208" stop-color="#F33E7F"/>
</linearGradient>
<linearGradient id="paint1_linear_33_9" x1="-31" y1="107" x2="-31" y2="41" gradientUnits="userSpaceOnUse">
<stop stop-color="#F33E7F"/>
<stop offset="1" stop-color="#F4972D"/>
</linearGradient>
<linearGradient id="paint2_linear_33_9" x1="57" y1="7" x2="57" y2="107" gradientUnits="userSpaceOnUse">
<stop offset="0.328125" stop-color="#F4972D"/>
<stop offset="1" stop-color="#F33E7F"/>
</linearGradient>
</defs>
</svg>
